<?xml version="1.0" encoding="utf-8"?>
<!-- Generator: Adobe Illustrator 16.0.4, SVG Export Plug-In . SVG Version: 6.00 Build 0)  -->
<!DOCTYPE svg PUBLIC "-//W3C//DTD SVG 1.1//EN" "http://www.w3.org/Graphics/SVG/1.1/DTD/svg11.dtd">
<svg version="1.1" id="Layer_1" xmlns="http://www.w3.org/2000/svg" xmlns:xlink="http://www.w3.org/1999/xlink" x="0px" y="0px"
	 width="50px" height="50px" viewBox="0 0 50 50" enable-background="new 0 0 50 50" xml:space="preserve">
<path d="M25,5C13.974,5,5,13.973,5,25s8.974,20,20,20c11.029,0,20-8.973,20-20S36.029,5,25,5z M30.738,36.079
	c-0.592,0.506-1.316,0.753-2.037,0.754c-0.895,0.002-1.783-0.375-2.408-1.108l-7.385-8.666c-1.004-1.176-1.006-2.902-0.008-4.082
	l7.355-8.692c1.125-1.329,3.115-1.495,4.442-0.37c1.33,1.125,1.496,3.115,0.371,4.443l-5.625,6.648l5.647,6.629
	C32.223,32.96,32.064,34.95,30.738,36.079z"/>
</svg>
