<?xml version="1.0" encoding="utf-8"?>
<!-- Generator: Adobe Illustrator 16.0.4, SVG Export Plug-In . SVG Version: 6.00 Build 0)  -->
<!DOCTYPE svg PUBLIC "-//W3C//DTD SVG 1.1//EN" "http://www.w3.org/Graphics/SVG/1.1/DTD/svg11.dtd">
<svg version="1.1" id="Layer_1" xmlns="http://www.w3.org/2000/svg" xmlns:xlink="http://www.w3.org/1999/xlink" x="0px" y="0px"
	 width="50px" height="50px" viewBox="0 0 50 50" enable-background="new 0 0 50 50" xml:space="preserve">
<path d="M25,5C13.973,5,5,13.973,5,25s8.973,20,20,20c11.027,0,20-8.973,20-20S36.027,5,25,5z M31.1,27.023l-7.355,8.691
	c-0.621,0.735-1.51,1.115-2.402,1.117c-0.722,0-1.447-0.244-2.041-0.747c-1.33-1.125-1.496-3.114-0.37-4.444l5.626-6.647
	l-5.648-6.63c-1.131-1.324-0.971-3.314,0.354-4.444c1.327-1.129,3.316-0.97,4.445,0.354l7.388,8.668
	C32.096,24.117,32.098,25.846,31.1,27.023z"/>
</svg>
